<svg width="438" height="527" viewBox="0 0 438 527" fill="none" xmlns="http://www.w3.org/2000/svg">
<path d="M284.043 61.7466C128.043 26.1466 46.7095 58.58 49.5428 120.747L49.5429 251.247C49.5429 360.747 30.5429 351.747 80.5429 438.247C130.543 524.747 220.043 458.747 228.543 396.747C237.043 334.747 290.543 254.747 324.043 213.247C357.543 171.747 479.043 106.247 284.043 61.7466Z" stroke="black"/>
<circle cx="138.543" cy="208.747" r="5" fill="black"/>
<line x1="138.919" y1="208.417" x2="359.919" y2="460.417" stroke="black"/>
<line x1="138.881" y1="208.378" x2="382.881" y2="432.378" stroke="black"/>
<path d="M187.043 252.247C187.043 254.08 186.043 257.747 182.043 257.747" stroke="black"/>
<path d="M316.683 356.857C316.943 356.762 317.076 356.475 316.982 356.216L315.443 351.987C315.348 351.728 315.061 351.594 314.802 351.688C314.542 351.783 314.409 352.07 314.503 352.329L315.871 356.088L312.112 357.456C311.853 357.551 311.719 357.837 311.814 358.097C311.908 358.356 312.195 358.49 312.454 358.396L316.683 356.857ZM251.953 326.834L316.301 356.84L316.723 355.934L252.375 325.928L251.953 326.834Z" fill="black"/>
<line x1="257.184" y1="316.067" x2="248.214" y2="334.081" stroke="black" stroke-width="1.5"/>
<path d="M196.815 235.611C198.076 235.523 198.678 235.479 198.619 235.479H198.707V242.057C198.707 246.471 198.714 248.701 198.729 248.745C198.788 249.111 198.971 249.339 199.279 249.427C199.44 249.471 199.69 249.5 200.027 249.515H200.423V250.131V250.747L196.815 250.989H196.639V250.439V249.889L196.485 250.021C195.502 250.71 194.454 251.033 193.339 250.989C192.855 250.974 192.386 250.857 191.931 250.637C191.462 250.402 191.051 250.109 190.699 249.757C189.702 248.715 189.225 247.403 189.269 245.819C189.313 245.012 189.489 244.279 189.797 243.619C190.061 243.105 190.362 242.673 190.699 242.321C191.066 241.954 191.476 241.661 191.931 241.441C192.254 241.279 192.584 241.162 192.921 241.089C193.082 241.059 193.339 241.045 193.691 241.045C194.175 241.045 194.622 241.096 195.033 241.199C195.561 241.331 196.045 241.536 196.485 241.815C196.617 241.888 196.69 241.932 196.705 241.947L196.683 237.701C196.624 237.349 196.441 237.129 196.133 237.041C195.972 236.997 195.722 236.967 195.385 236.953H194.989V236.337V235.721H195.033L196.815 235.611ZM194.857 242.101C194.388 242.027 193.94 242.049 193.515 242.167C192.738 242.387 192.21 242.856 191.931 243.575C191.74 244.073 191.645 244.887 191.645 246.017C191.645 247.205 191.748 248.055 191.953 248.569C192.202 249.229 192.708 249.669 193.471 249.889C193.588 249.918 193.779 249.933 194.043 249.933C194.322 249.933 194.505 249.925 194.593 249.911C195.4 249.735 196.052 249.295 196.551 248.591L196.639 248.459V245.841V243.223L196.507 243.069C196.067 242.555 195.517 242.233 194.857 242.101ZM207.279 250.967C206.077 250.967 205.079 250.629 204.287 249.955C203.51 249.265 202.931 248.29 202.549 247.029C202.168 245.753 201.977 244.227 201.977 242.453C201.977 240.663 202.153 239.131 202.505 237.855C202.857 236.579 203.422 235.603 204.199 234.929C204.991 234.254 206.018 233.917 207.279 233.917C208.497 233.917 209.501 234.254 210.293 234.929C211.085 235.589 211.672 236.557 212.053 237.833C212.449 239.109 212.647 240.649 212.647 242.453C212.647 244.227 212.464 245.753 212.097 247.029C211.745 248.29 211.173 249.265 210.381 249.955C209.604 250.629 208.57 250.967 207.279 250.967ZM207.279 249.361C208.042 249.361 208.665 249.141 209.149 248.701C209.648 248.261 210.022 247.571 210.271 246.633C210.521 245.694 210.66 244.469 210.689 242.959H203.935C203.965 244.455 204.089 245.672 204.309 246.611C204.544 247.549 204.903 248.246 205.387 248.701C205.871 249.141 206.502 249.361 207.279 249.361ZM203.935 241.463H210.667C210.623 240.128 210.477 239.028 210.227 238.163C209.978 237.283 209.611 236.63 209.127 236.205C208.643 235.765 208.027 235.545 207.279 235.545C206.531 235.545 205.915 235.765 205.431 236.205C204.962 236.63 204.61 237.283 204.375 238.163C204.141 239.028 203.994 240.128 203.935 241.463Z" fill="black"/>
<path d="M145.36 189.218C145.565 189.101 145.763 189.167 145.954 189.416L145.998 189.504V192.782V196.06H149.276H152.554L152.642 196.104C152.686 196.133 152.745 196.185 152.818 196.258C152.862 196.346 152.884 196.427 152.884 196.5C152.884 196.573 152.862 196.654 152.818 196.742C152.745 196.815 152.686 196.867 152.642 196.896L152.554 196.94H149.276H145.998V200.218V203.496L145.954 203.584C145.91 203.657 145.859 203.709 145.8 203.738C145.741 203.782 145.661 203.804 145.558 203.804C145.455 203.804 145.375 203.782 145.316 203.738C145.257 203.709 145.206 203.657 145.162 203.584L145.118 203.496V200.218V196.94H141.84H138.54L138.452 196.896C138.379 196.837 138.327 196.786 138.298 196.742C138.254 196.683 138.232 196.603 138.232 196.5C138.232 196.397 138.254 196.317 138.298 196.258C138.327 196.214 138.379 196.163 138.452 196.104L138.54 196.06H141.84H145.118V192.76L145.14 189.46L145.206 189.372L145.36 189.218ZM158.963 192.298H159.755C160.738 192.401 161.603 192.826 162.351 193.574C162.527 193.765 162.622 193.845 162.637 193.816L162.945 193.024L163.253 192.276H163.759H164.287V198.568C164.287 202.763 164.294 204.867 164.309 204.882C164.368 204.985 164.778 205.036 165.541 205.036H166.003V205.652V206.268H165.827L164.441 206.224C163.649 206.209 162.857 206.209 162.065 206.224L160.679 206.268H160.503V205.652V205.036H160.965C161.772 205.036 162.182 204.977 162.197 204.86C162.212 204.845 162.219 204.2 162.219 202.924V201.054L162.043 201.186C161.134 201.919 160.114 202.271 158.985 202.242C158.868 202.242 158.758 202.235 158.655 202.22C157.423 202.044 156.44 201.391 155.707 200.262C155.59 200.071 155.48 199.873 155.377 199.668C154.732 198.275 154.658 196.867 155.157 195.444C155.216 195.253 155.289 195.07 155.377 194.894C155.67 194.351 155.971 193.926 156.279 193.618C156.616 193.251 157.012 192.958 157.467 192.738C157.936 192.503 158.435 192.357 158.963 192.298ZM160.239 193.398C159.696 193.31 159.183 193.442 158.699 193.794C158.2 194.146 157.826 194.659 157.577 195.334C157.122 196.463 157.078 197.651 157.445 198.898C157.548 199.294 157.694 199.646 157.885 199.954C158.281 200.643 158.765 201.054 159.337 201.186C159.806 201.259 160.305 201.171 160.833 200.922C161.332 200.673 161.772 200.24 162.153 199.624L162.285 199.404V197.358V195.312L162.197 195.114C161.801 194.19 161.192 193.625 160.371 193.42C160.327 193.42 160.283 193.413 160.239 193.398Z" fill="black"/>
<path d="M323.815 334.611C325.076 334.523 325.678 334.479 325.619 334.479H325.707V341.057C325.707 345.471 325.714 347.701 325.729 347.745C325.788 348.111 325.971 348.339 326.279 348.427C326.44 348.471 326.69 348.5 327.027 348.515H327.423V349.131V349.747L323.815 349.989H323.639V349.439V348.889L323.485 349.021C322.502 349.71 321.454 350.033 320.339 349.989C319.855 349.974 319.386 349.857 318.931 349.637C318.462 349.402 318.051 349.109 317.699 348.757C316.702 347.715 316.225 346.403 316.269 344.819C316.313 344.012 316.489 343.279 316.797 342.619C317.061 342.105 317.362 341.673 317.699 341.321C318.066 340.954 318.476 340.661 318.931 340.441C319.254 340.279 319.584 340.162 319.921 340.089C320.082 340.059 320.339 340.045 320.691 340.045C321.175 340.045 321.622 340.096 322.033 340.199C322.561 340.331 323.045 340.536 323.485 340.815C323.617 340.888 323.69 340.932 323.705 340.947L323.683 336.701C323.624 336.349 323.441 336.129 323.133 336.041C322.972 335.997 322.722 335.967 322.385 335.953H321.989V335.337V334.721H322.033L323.815 334.611ZM321.857 341.101C321.388 341.027 320.94 341.049 320.515 341.167C319.738 341.387 319.21 341.856 318.931 342.575C318.74 343.073 318.645 343.887 318.645 345.017C318.645 346.205 318.748 347.055 318.953 347.569C319.202 348.229 319.708 348.669 320.471 348.889C320.588 348.918 320.779 348.933 321.043 348.933C321.322 348.933 321.505 348.925 321.593 348.911C322.4 348.735 323.052 348.295 323.551 347.591L323.639 347.459V344.841V342.223L323.507 342.069C323.067 341.555 322.517 341.233 321.857 341.101ZM330.011 340.155C331.243 340.067 331.83 340.023 331.771 340.023H331.859V340.771V341.519L332.101 341.255C332.703 340.639 333.414 340.257 334.235 340.111C334.925 339.964 335.599 339.986 336.259 340.177C336.611 340.25 336.927 340.404 337.205 340.639C337.689 341.035 337.975 341.658 338.063 342.509C338.078 342.611 338.085 343.623 338.085 345.545C338.085 347.407 338.093 348.346 338.107 348.361C338.166 348.463 338.577 348.515 339.339 348.515H339.801V349.131V349.747H339.625L338.239 349.703C337.433 349.688 336.641 349.688 335.863 349.703L334.521 349.747H334.323V349.131V348.515H334.785C335.563 348.515 335.973 348.456 336.017 348.339V345.369C336.003 343.345 335.959 342.223 335.885 342.003C335.753 341.519 335.445 341.218 334.961 341.101C334.653 341.042 334.323 341.049 333.971 341.123C333.37 341.255 332.886 341.607 332.519 342.179C332.299 342.487 332.145 342.853 332.057 343.279C332.028 343.411 332.006 344.276 331.991 345.875V348.339C332.035 348.456 332.453 348.515 333.245 348.515H333.707V349.131V349.747H333.531L332.145 349.703C331.353 349.688 330.561 349.688 329.769 349.703L328.383 349.747H328.207V349.131V348.515H328.669C329.432 348.515 329.843 348.463 329.901 348.361V342.245C329.843 341.893 329.659 341.673 329.351 341.585C329.19 341.541 328.941 341.511 328.603 341.497H328.207V340.881V340.265H328.251L330.011 340.155Z" fill="black"/>
<path d="M328 335.253H338" stroke="black"/>
<path d="M337.646 335.491L338 335.844L338.707 335.137L338.354 334.784L337.646 335.491ZM335.216 331.646C335.021 331.451 334.705 331.451 334.509 331.646C334.314 331.842 334.314 332.158 334.509 332.354L335.216 331.646ZM338.354 334.784L335.216 331.646L334.509 332.354L337.646 335.491L338.354 334.784Z" fill="black"/>
<path d="M334.509 337.921C334.314 338.116 334.314 338.433 334.509 338.628C334.705 338.823 335.021 338.823 335.216 338.628L334.509 337.921ZM337.646 334.784L334.509 337.921L335.216 338.628L338.354 335.491L337.646 334.784Z" fill="black"/>
<path d="M330.815 400.611C332.076 400.523 332.678 400.479 332.619 400.479H332.707V407.057C332.707 411.471 332.714 413.701 332.729 413.745C332.788 414.111 332.971 414.339 333.279 414.427C333.44 414.471 333.69 414.5 334.027 414.515H334.423V415.131V415.747L330.815 415.989H330.639V415.439V414.889L330.485 415.021C329.502 415.71 328.454 416.033 327.339 415.989C326.855 415.974 326.386 415.857 325.931 415.637C325.462 415.402 325.051 415.109 324.699 414.757C323.702 413.715 323.225 412.403 323.269 410.819C323.313 410.012 323.489 409.279 323.797 408.619C324.061 408.105 324.362 407.673 324.699 407.321C325.066 406.954 325.476 406.661 325.931 406.441C326.254 406.279 326.584 406.162 326.921 406.089C327.082 406.059 327.339 406.045 327.691 406.045C328.175 406.045 328.622 406.096 329.033 406.199C329.561 406.331 330.045 406.536 330.485 406.815C330.617 406.888 330.69 406.932 330.705 406.947L330.683 402.701C330.624 402.349 330.441 402.129 330.133 402.041C329.972 401.997 329.722 401.967 329.385 401.953H328.989V401.337V400.721H329.033L330.815 400.611ZM328.857 407.101C328.388 407.027 327.94 407.049 327.515 407.167C326.738 407.387 326.21 407.856 325.931 408.575C325.74 409.073 325.645 409.887 325.645 411.017C325.645 412.205 325.748 413.055 325.953 413.569C326.202 414.229 326.708 414.669 327.471 414.889C327.588 414.918 327.779 414.933 328.043 414.933C328.322 414.933 328.505 414.925 328.593 414.911C329.4 414.735 330.052 414.295 330.551 413.591L330.639 413.459V410.841V408.223L330.507 408.069C330.067 407.555 329.517 407.233 328.857 407.101ZM336.879 406.155C338.111 406.067 338.698 406.023 338.639 406.023H338.705V406.551V407.079L338.793 406.969C338.94 406.749 339.123 406.565 339.343 406.419C339.505 406.301 339.747 406.191 340.069 406.089C340.348 406.015 340.649 406.001 340.971 406.045C341.763 406.133 342.306 406.448 342.599 406.991C342.878 407.519 342.849 408.003 342.511 408.443C342.423 408.56 342.306 408.655 342.159 408.729C341.983 408.817 341.785 408.861 341.565 408.861C341.331 408.861 341.125 408.817 340.949 408.729C340.509 408.509 340.304 408.135 340.333 407.607C340.333 407.475 340.355 407.35 340.399 407.233C340.443 407.13 340.465 407.071 340.465 407.057L340.311 407.101C339.461 407.277 338.969 408.23 338.837 409.961V414.361C338.881 414.449 339.307 414.5 340.113 414.515H340.949V415.131V415.747H340.751C340.766 415.747 340.245 415.732 339.189 415.703C338.28 415.688 337.437 415.688 336.659 415.703C335.765 415.732 335.31 415.747 335.295 415.747H335.097V415.131V414.515H335.559C336.322 414.515 336.733 414.463 336.791 414.361V408.245C336.733 407.893 336.549 407.673 336.241 407.585C336.08 407.541 335.831 407.511 335.493 407.497H335.097V406.881C335.097 406.47 335.112 406.265 335.141 406.265L336.879 406.155Z" fill="black"/>
<path d="M338.786 400.954L335 404" stroke="black" stroke-linecap="round"/>
<path d="M338.786 400.954L343 404" stroke="black" stroke-linecap="round"/>
<path d="M324.535 401.247C324.811 401.251 325.038 401.031 325.043 400.754L325.113 396.255C325.117 395.979 324.897 395.752 324.621 395.747C324.345 395.743 324.117 395.963 324.113 396.239L324.051 400.239L320.051 400.177C319.775 400.172 319.548 400.393 319.543 400.669C319.539 400.945 319.759 401.172 320.036 401.176L324.535 401.247ZM324.902 400.399L252.541 325.745L251.823 326.441L324.184 401.095L324.902 400.399Z" fill="black"/>
</svg>
