<svg width="1046" height="520" viewBox="0 0 1046 520" fill="none" xmlns="http://www.w3.org/2000/svg">
<path d="M374.5 98.5C374.5 101.796 372.443 105.021 368.527 108.029C364.617 111.032 358.928 113.758 351.853 116.056C337.71 120.65 318.139 123.5 296.5 123.5C274.861 123.5 255.29 120.65 241.147 116.056C234.072 113.758 228.383 111.032 224.473 108.029C220.557 105.021 218.5 101.796 218.5 98.5C218.5 95.2037 220.557 91.979 224.473 88.9708C228.383 85.9681 234.072 83.2424 241.147 80.9443C255.29 76.3499 274.861 73.5 296.5 73.5C318.139 73.5 337.71 76.3499 351.853 80.9443C358.928 83.2424 364.617 85.9681 368.527 88.9708C372.443 91.979 374.5 95.2037 374.5 98.5Z" stroke="black"/>
<path d="M374.5 429.5C374.5 432.796 372.443 436.021 368.527 439.029C364.617 442.032 358.928 444.758 351.853 447.056C337.71 451.65 318.139 454.5 296.5 454.5C274.861 454.5 255.29 451.65 241.147 447.056C234.072 444.758 228.383 442.032 224.473 439.029C220.557 436.021 218.5 432.796 218.5 429.5C218.5 426.204 220.557 422.979 224.473 419.971C228.383 416.968 234.072 414.242 241.147 411.944C255.29 407.35 274.861 404.5 296.5 404.5C318.139 404.5 337.71 407.35 351.853 411.944C358.928 414.242 364.617 416.968 368.527 419.971C372.443 422.979 374.5 426.204 374.5 429.5Z" stroke="black"/>
<rect x="219" y="218" width="155" height="59" fill="white" fill-opacity="0.85"/>
<path d="M374.5 276.5C374.5 279.796 372.443 283.021 368.527 286.029C364.617 289.032 358.928 291.758 351.853 294.056C337.71 298.65 318.139 301.5 296.5 301.5C274.861 301.5 255.29 298.65 241.147 294.056C234.072 291.758 228.383 289.032 224.473 286.029C220.557 283.021 218.5 279.796 218.5 276.5C218.5 273.204 220.557 269.979 224.473 266.971C228.383 263.968 234.072 261.242 241.147 258.944C255.29 254.35 274.861 251.5 296.5 251.5C318.139 251.5 337.71 254.35 351.853 258.944C358.928 261.242 364.617 263.968 368.527 266.971C372.443 269.979 374.5 273.204 374.5 276.5Z" fill="white" stroke="black"/>
<rect x="211" y="362" width="175" height="67" fill="white" fill-opacity="0.85"/>
<path d="M461 321H80L185.5 230.5H566L461 321Z" fill="#7EBAFF" fill-opacity="0.7" stroke="black" stroke-opacity="0.2" stroke-linecap="round"/>
<line x1="374.5" y1="430" x2="374.5" y2="98" stroke="black"/>
<line x1="218.5" y1="430" x2="218.5" y2="98" stroke="black"/>
<path d="M255.53 49.4697C255.237 49.1768 254.763 49.1768 254.47 49.4697L249.697 54.2426C249.404 54.5356 249.404 55.0104 249.697 55.3033C249.99 55.5962 250.464 55.5962 250.757 55.3033L255 51.0607L259.243 55.3033C259.536 55.5962 260.01 55.5962 260.303 55.3033C260.596 55.0104 260.596 54.5356 260.303 54.2426L255.53 49.4697ZM255.75 470L255.75 50H254.25L254.25 470H255.75Z" fill="#005723"/>
<path d="M339.53 49.4697C339.237 49.1768 338.763 49.1768 338.47 49.4697L333.697 54.2426C333.404 54.5356 333.404 55.0104 333.697 55.3033C333.99 55.5962 334.464 55.5962 334.757 55.3033L339 51.0607L343.243 55.3033C343.536 55.5962 344.01 55.5962 344.303 55.3033C344.596 55.0104 344.596 54.5356 344.303 54.2426L339.53 49.4697ZM339.75 470L339.75 50H338.25L338.25 470H339.75Z" fill="#005723"/>
<path d="M311.53 49.4697C311.237 49.1768 310.763 49.1768 310.47 49.4697L305.697 54.2426C305.404 54.5356 305.404 55.0104 305.697 55.3033C305.99 55.5962 306.464 55.5962 306.757 55.3033L311 51.0607L315.243 55.3033C315.536 55.5962 316.01 55.5962 316.303 55.3033C316.596 55.0104 316.596 54.5356 316.303 54.2426L311.53 49.4697ZM311.75 470L311.75 50H310.25L310.25 470H311.75Z" fill="#005723"/>
<path d="M283.53 49.4697C283.237 49.1768 282.763 49.1768 282.47 49.4697L277.697 54.2426C277.404 54.5356 277.404 55.0104 277.697 55.3033C277.99 55.5962 278.464 55.5962 278.757 55.3033L283 51.0607L287.243 55.3033C287.536 55.5962 288.01 55.5962 288.303 55.3033C288.596 55.0104 288.596 54.5356 288.303 54.2426L283.53 49.4697ZM283.75 470L283.75 50H282.25L282.25 470H283.75Z" fill="#005723"/>
<path d="M218.5 230.5H185.5L80.5 321H461L566.5 230.5H374.5V277.5C374.5 277.5 372.5 300 296.5 301.5C221 300 218.5 277.5 218.5 277.5V230.5Z" fill="#7EBAFF" stroke="black" stroke-linecap="round"/>
<path d="M348 425L355 429.5L349.5 436.5" stroke="#A04D00" stroke-linecap="round"/>
<path d="M218.5 414C218.5 414 221 436.5 296.5 438C372.5 436.5 374.5 414 374.5 414" stroke="#A04D00" stroke-linecap="round"/>
<path d="M348 405L355 409.5L349.5 416.5" stroke="#A04D00" stroke-linecap="round"/>
<path d="M218.5 394C218.5 394 221 416.5 296.5 418C372.5 416.5 374.5 394 374.5 394" stroke="#A04D00" stroke-linecap="round"/>
<path d="M348 385L355 389.5L349.5 396.5" stroke="#A04D00" stroke-linecap="round"/>
<path d="M218.5 374C218.5 374 221 396.5 296.5 398C372.5 396.5 374.5 374 374.5 374" stroke="#A04D00" stroke-linecap="round"/>
<path d="M348 365L355 369.5L349.5 376.5" stroke="#A04D00" stroke-linecap="round"/>
<path d="M218.5 354C218.5 354 221 376.5 296.5 378C372.5 376.5 374.5 354 374.5 354" stroke="#A04D00" stroke-linecap="round"/>
<path d="M348 345L355 349.5L349.5 356.5" stroke="#A04D00" stroke-linecap="round"/>
<path d="M218.5 334C218.5 334 221 356.5 296.5 358C372.5 356.5 374.5 334 374.5 334" stroke="#A04D00" stroke-linecap="round"/>
<path d="M348 325L355 329.5L349.5 336.5" stroke="#A04D00" stroke-linecap="round"/>
<path d="M218.5 314C218.5 314 221 336.5 296.5 338C372.5 336.5 374.5 314 374.5 314" stroke="#A04D00" stroke-linecap="round"/>
<path d="M348 305L355 309.5L349.5 316.5" stroke="#A04D00" stroke-linecap="round"/>
<path d="M218.5 294C218.5 294 221 316.5 296.5 318C372.5 316.5 374.5 294 374.5 294" stroke="#A04D00" stroke-linecap="round"/>
<path d="M348 285L355 289.5L349.5 296.5" stroke="#A04D00" stroke-linecap="round"/>
<path d="M218.5 274C218.5 274 221 296.5 296.5 298C372.5 296.5 374.5 274 374.5 274" stroke="#A04D00" stroke-linecap="round"/>
<path d="M348 265L355 269.5L349.5 276.5" stroke="#A04D00" stroke-linecap="round"/>
<path d="M218.5 254C218.5 254 221 276.5 296.5 278C372.5 276.5 374.5 254 374.5 254" stroke="#A04D00" stroke-linecap="round"/>
<path d="M348 245L355 249.5L349.5 256.5" stroke="#A04D00" stroke-linecap="round"/>
<path d="M218.5 234C218.5 234 221 256.5 296.5 258C372.5 256.5 374.5 234 374.5 234" stroke="#A04D00" stroke-linecap="round"/>
<path d="M348 225L355 229.5L349.5 236.5" stroke="#A04D00" stroke-linecap="round"/>
<path d="M218.5 214C218.5 214 221 236.5 296.5 238C372.5 236.5 374.5 214 374.5 214" stroke="#A04D00" stroke-linecap="round"/>
<path d="M348 205L355 209.5L349.5 216.5" stroke="#A04D00" stroke-linecap="round"/>
<path d="M218.5 194C218.5 194 221 216.5 296.5 218C372.5 216.5 374.5 194 374.5 194" stroke="#A04D00" stroke-linecap="round"/>
<path d="M348 185L355 189.5L349.5 196.5" stroke="#A04D00" stroke-linecap="round"/>
<path d="M218.5 174C218.5 174 221 196.5 296.5 198C372.5 196.5 374.5 174 374.5 174" stroke="#A04D00" stroke-linecap="round"/>
<path d="M348 165L355 169.5L349.5 176.5" stroke="#A04D00" stroke-linecap="round"/>
<path d="M218.5 154C218.5 154 221 176.5 296.5 178C372.5 176.5 374.5 154 374.5 154" stroke="#A04D00" stroke-linecap="round"/>
<path d="M348 145L355 149.5L349.5 156.5" stroke="#A04D00" stroke-linecap="round"/>
<path d="M218.5 134C218.5 134 221 156.5 296.5 158C372.5 156.5 374.5 134 374.5 134" stroke="#A04D00" stroke-linecap="round"/>
<path d="M348 125.5L355 130L349.5 137" stroke="#A04D00" stroke-linecap="round"/>
<path d="M218.5 114.5C218.5 114.5 221 137 296.5 138.5C372.5 137 374.5 114.5 374.5 114.5" stroke="#A04D00" stroke-linecap="round"/>
<path d="M80.5 321H461.5L511.5 277.5H374.5C374.5 277.5 372.5 300 296.5 301.5C221 300 218.5 277.5 218.5 277.5H130.97L80.5 321Z" fill="#7EBAFF"/>
<path d="M185.5 230.5L80 321H461L566.5 230.5" stroke="black"/>
<path d="M218.5 277.5C218.5 277.5 221 300 296.5 301.5C372.5 300 374.5 277.5 374.5 277.5" stroke="black" stroke-linecap="round"/>
<path d="M618.402 309.953C618.566 309.731 618.52 309.418 618.298 309.253L614.683 306.573C614.461 306.409 614.148 306.455 613.983 306.677C613.819 306.899 613.865 307.212 614.087 307.377L617.301 309.759L614.918 312.972C614.754 313.194 614.8 313.507 615.022 313.672C615.244 313.836 615.557 313.789 615.722 313.568L618.402 309.953ZM539.193 277.987C544.397 275.815 552.672 273.787 560.565 274.743C568.429 275.696 575.888 279.601 579.624 289.293L580.557 288.933C576.659 278.821 568.83 274.738 560.686 273.751C552.572 272.767 544.119 274.847 538.807 277.064L539.193 277.987ZM579.624 289.293C583.501 299.349 590.734 304.927 598.183 307.804C605.616 310.675 613.274 310.862 618.073 310.149L617.927 309.16C613.271 309.852 605.792 309.671 598.543 306.871C591.309 304.077 584.315 298.681 580.557 288.933L579.624 289.293Z" fill="black"/>
<rect x="641.5" y="209.5" width="324" height="201" fill="#7EBAFF" stroke="black"/>
<circle cx="804" cy="310" r="60" fill="#D9D9D9" stroke="#A04D00" stroke-width="3"/>
<path d="M856.5 313.5L864 307L870.5 313.5" stroke="#A04D00" stroke-width="3" stroke-linecap="round"/>
<path d="M752 310L744.5 316.5L738 310" stroke="#A04D00" stroke-width="3" stroke-linecap="round"/>
<circle cx="827" cy="267" r="3" fill="#005723"/>
<circle cx="781" cy="267" r="3" fill="#005723"/>
<circle cx="804" cy="267" r="3" fill="#005723"/>
<circle cx="804" cy="289" r="3" fill="#005723"/>
<circle cx="781" cy="289" r="3" fill="#005723"/>
<circle cx="827" cy="331" r="3" fill="#005723"/>
<circle cx="781" cy="331" r="3" fill="#005723"/>
<circle cx="804" cy="331" r="3" fill="#005723"/>
<circle cx="804" cy="353" r="3" fill="#005723"/>
<circle cx="781" cy="353" r="3" fill="#005723"/>
<circle cx="827" cy="353" r="3" fill="#005723"/>
<circle cx="804" cy="311" r="3" fill="#005723"/>
<circle cx="781" cy="311" r="3" fill="#005723"/>
<circle cx="827" cy="311" r="3" fill="#005723"/>
<circle cx="850" cy="289" r="3" fill="#005723"/>
<circle cx="850" cy="331" r="3" fill="#005723"/>
<circle cx="850" cy="311" r="3" fill="#005723"/>
<circle cx="759" cy="289" r="3" fill="#005723"/>
<circle cx="759" cy="331" r="3" fill="#005723"/>
<circle cx="759" cy="311" r="3" fill="#005723"/>
<path d="M356.188 43.96L356.272 43.876H361.256C364.635 43.876 366.389 43.8853 366.52 43.904C367.453 43.9973 368.247 44.268 368.9 44.716C369.311 44.9773 369.647 45.304 369.908 45.696C370.188 46.1627 370.375 46.6107 370.468 47.04C370.543 47.4693 370.543 47.936 370.468 48.44C370.169 50.008 369.161 51.2587 367.444 52.192C367.351 52.248 367.257 52.2947 367.164 52.332C366.809 52.5187 366.324 52.7147 365.708 52.92C365.521 52.9387 365.428 52.9667 365.428 53.004C365.671 53.004 366.007 53.0973 366.436 53.284C367.836 53.8253 368.667 54.7587 368.928 56.084C368.965 56.308 368.984 56.5413 368.984 56.784C368.984 58.1093 368.396 59.388 367.22 60.62C367.183 60.6573 367.145 60.6947 367.108 60.732C366.081 61.7587 364.859 62.4493 363.44 62.804C362.992 62.916 362.18 62.972 361.004 62.972C361.079 62.972 359.772 62.9813 357.084 63C353.463 63 351.615 62.972 351.54 62.916C351.521 62.916 351.503 62.8787 351.484 62.804C351.447 62.748 351.475 62.5333 351.568 62.16C351.661 61.768 351.736 61.5533 351.792 61.516L351.876 61.432H352.772C353.631 61.4133 354.116 61.376 354.228 61.32C354.321 61.264 354.396 61.152 354.452 60.984C354.583 60.6107 355.227 58.0907 356.384 53.424C357.672 48.272 358.316 45.6773 358.316 45.64C358.316 45.584 358.297 45.556 358.26 45.556C358.148 45.5187 357.709 45.4813 356.944 45.444C356.291 45.444 355.927 45.3787 355.852 45.248C355.833 45.192 355.861 44.9773 355.936 44.604C356.029 44.2493 356.113 44.0347 356.188 43.96ZM365.876 45.472C365.783 45.4533 365.055 45.444 363.692 45.444C362.311 45.444 361.536 45.4627 361.368 45.5C361.275 45.5373 361.219 45.5747 361.2 45.612L360.304 49.028L359.464 52.388H361.424C362.749 52.388 363.496 52.3693 363.664 52.332C364.821 52.0893 365.764 51.4173 366.492 50.316C367.295 49.1213 367.537 47.964 367.22 46.844C367.015 46.0787 366.567 45.6213 365.876 45.472ZM364.112 53.732C364 53.7133 363.132 53.704 361.508 53.704H359.128L358.204 57.484C357.569 59.9853 357.252 61.2733 357.252 61.348C357.252 61.3853 357.327 61.404 357.476 61.404C357.532 61.4227 358.316 61.432 359.828 61.432L361.984 61.404L362.236 61.348C363.58 60.956 364.579 60.0973 365.232 58.772C365.512 58.1933 365.689 57.5773 365.764 56.924C365.895 55.5987 365.587 54.6467 364.84 54.068C364.616 53.9 364.373 53.788 364.112 53.732Z" fill="#005723"/>
<path d="M820.188 279.96L820.272 279.876H825.256C828.635 279.876 830.389 279.885 830.52 279.904C831.453 279.997 832.247 280.268 832.9 280.716C833.311 280.977 833.647 281.304 833.908 281.696C834.188 282.163 834.375 282.611 834.468 283.04C834.543 283.469 834.543 283.936 834.468 284.44C834.169 286.008 833.161 287.259 831.444 288.192C831.351 288.248 831.257 288.295 831.164 288.332C830.809 288.519 830.324 288.715 829.708 288.92C829.521 288.939 829.428 288.967 829.428 289.004C829.671 289.004 830.007 289.097 830.436 289.284C831.836 289.825 832.667 290.759 832.928 292.084C832.965 292.308 832.984 292.541 832.984 292.784C832.984 294.109 832.396 295.388 831.22 296.62C831.183 296.657 831.145 296.695 831.108 296.732C830.081 297.759 828.859 298.449 827.44 298.804C826.992 298.916 826.18 298.972 825.004 298.972C825.079 298.972 823.772 298.981 821.084 299C817.463 299 815.615 298.972 815.54 298.916C815.521 298.916 815.503 298.879 815.484 298.804C815.447 298.748 815.475 298.533 815.568 298.16C815.661 297.768 815.736 297.553 815.792 297.516L815.876 297.432H816.772C817.631 297.413 818.116 297.376 818.228 297.32C818.321 297.264 818.396 297.152 818.452 296.984C818.583 296.611 819.227 294.091 820.384 289.424C821.672 284.272 822.316 281.677 822.316 281.64C822.316 281.584 822.297 281.556 822.26 281.556C822.148 281.519 821.709 281.481 820.944 281.444C820.291 281.444 819.927 281.379 819.852 281.248C819.833 281.192 819.861 280.977 819.936 280.604C820.029 280.249 820.113 280.035 820.188 279.96ZM829.876 281.472C829.783 281.453 829.055 281.444 827.692 281.444C826.311 281.444 825.536 281.463 825.368 281.5C825.275 281.537 825.219 281.575 825.2 281.612L824.304 285.028L823.464 288.388H825.424C826.749 288.388 827.496 288.369 827.664 288.332C828.821 288.089 829.764 287.417 830.492 286.316C831.295 285.121 831.537 283.964 831.22 282.844C831.015 282.079 830.567 281.621 829.876 281.472ZM828.112 289.732C828 289.713 827.132 289.704 825.508 289.704H823.128L822.204 293.484C821.569 295.985 821.252 297.273 821.252 297.348C821.252 297.385 821.327 297.404 821.476 297.404C821.532 297.423 822.316 297.432 823.828 297.432L825.984 297.404L826.236 297.348C827.58 296.956 828.579 296.097 829.232 294.772C829.512 294.193 829.689 293.577 829.764 292.924C829.895 291.599 829.587 290.647 828.84 290.068C828.616 289.9 828.373 289.788 828.112 289.732Z" fill="#005723"/>
<path d="M386.784 113.688C387.456 113.52 387.941 113.688 388.24 114.192C388.333 114.36 388.389 114.547 388.408 114.752C388.408 115.032 388.343 115.303 388.212 115.564C387.783 116.161 387.241 116.507 386.588 116.6C386.383 116.6 386.168 116.544 385.944 116.432C385.757 116.339 385.608 116.171 385.496 115.928C385.44 115.853 385.403 115.704 385.384 115.48C385.384 115.181 385.44 114.92 385.552 114.696C385.813 114.173 386.224 113.837 386.784 113.688ZM384.376 119.68C384.507 119.643 384.712 119.624 384.992 119.624C385.421 119.643 385.795 119.736 386.112 119.904C386.355 120.035 386.541 120.175 386.672 120.324C386.821 120.455 386.961 120.641 387.092 120.884C387.26 121.239 387.335 121.612 387.316 122.004C387.316 122.321 387.297 122.545 387.26 122.676C387.241 122.713 386.821 123.88 386 126.176C385.216 128.267 384.796 129.424 384.74 129.648C384.553 130.264 384.525 130.675 384.656 130.88C384.749 130.992 384.945 131.011 385.244 130.936C385.972 130.768 386.56 129.863 387.008 128.22C387.101 127.921 387.195 127.763 387.288 127.744C387.344 127.725 387.54 127.716 387.876 127.716C388.287 127.716 388.511 127.735 388.548 127.772C388.66 127.847 388.66 128.043 388.548 128.36C388.343 129.088 388.035 129.769 387.624 130.404C386.877 131.524 386.028 132.149 385.076 132.28C384.74 132.355 384.395 132.336 384.04 132.224C383.667 132.112 383.359 131.972 383.116 131.804C382.705 131.468 382.435 130.992 382.304 130.376C382.229 130.021 382.248 129.648 382.36 129.256C382.397 129.107 382.808 127.959 383.592 125.812C384.264 124.02 384.693 122.844 384.88 122.284C385.067 121.705 385.095 121.304 384.964 121.08C384.908 120.931 384.712 120.903 384.376 120.996C383.816 121.127 383.321 121.715 382.892 122.76C382.649 123.6 382.528 124.001 382.528 123.964C382.472 124.076 382.435 124.141 382.416 124.16C382.379 124.197 382.155 124.216 381.744 124.216H381.128L381.044 124.132C380.988 124.076 380.96 124.001 380.96 123.908C380.997 123.609 381.156 123.143 381.436 122.508C381.66 122.023 381.893 121.621 382.136 121.304C382.379 120.968 382.687 120.632 383.06 120.296C383.471 119.979 383.909 119.773 384.376 119.68Z" fill="#A04D00"/>
<path d="M881.784 288.688C882.456 288.52 882.941 288.688 883.24 289.192C883.333 289.36 883.389 289.547 883.408 289.752C883.408 290.032 883.343 290.303 883.212 290.564C882.783 291.161 882.241 291.507 881.588 291.6C881.383 291.6 881.168 291.544 880.944 291.432C880.757 291.339 880.608 291.171 880.496 290.928C880.44 290.853 880.403 290.704 880.384 290.48C880.384 290.181 880.44 289.92 880.552 289.696C880.813 289.173 881.224 288.837 881.784 288.688ZM879.376 294.68C879.507 294.643 879.712 294.624 879.992 294.624C880.421 294.643 880.795 294.736 881.112 294.904C881.355 295.035 881.541 295.175 881.672 295.324C881.821 295.455 881.961 295.641 882.092 295.884C882.26 296.239 882.335 296.612 882.316 297.004C882.316 297.321 882.297 297.545 882.26 297.676C882.241 297.713 881.821 298.88 881 301.176C880.216 303.267 879.796 304.424 879.74 304.648C879.553 305.264 879.525 305.675 879.656 305.88C879.749 305.992 879.945 306.011 880.244 305.936C880.972 305.768 881.56 304.863 882.008 303.22C882.101 302.921 882.195 302.763 882.288 302.744C882.344 302.725 882.54 302.716 882.876 302.716C883.287 302.716 883.511 302.735 883.548 302.772C883.66 302.847 883.66 303.043 883.548 303.36C883.343 304.088 883.035 304.769 882.624 305.404C881.877 306.524 881.028 307.149 880.076 307.28C879.74 307.355 879.395 307.336 879.04 307.224C878.667 307.112 878.359 306.972 878.116 306.804C877.705 306.468 877.435 305.992 877.304 305.376C877.229 305.021 877.248 304.648 877.36 304.256C877.397 304.107 877.808 302.959 878.592 300.812C879.264 299.02 879.693 297.844 879.88 297.284C880.067 296.705 880.095 296.304 879.964 296.08C879.908 295.931 879.712 295.903 879.376 295.996C878.816 296.127 878.321 296.715 877.892 297.76C877.649 298.6 877.528 299.001 877.528 298.964C877.472 299.076 877.435 299.141 877.416 299.16C877.379 299.197 877.155 299.216 876.744 299.216H876.128L876.044 299.132C875.988 299.076 875.96 299.001 875.96 298.908C875.997 298.609 876.156 298.143 876.436 297.508C876.66 297.023 876.893 296.621 877.136 296.304C877.379 295.968 877.687 295.632 878.06 295.296C878.471 294.979 878.909 294.773 879.376 294.68Z" fill="#A04D00"/>
</svg>
