<svg width="1046" height="520" viewBox="0 0 1046 520" fill="none" xmlns="http://www.w3.org/2000/svg">
<path d="M374.5 98.5C374.5 101.796 372.443 105.021 368.527 108.029C364.617 111.032 358.928 113.758 351.853 116.056C337.71 120.65 318.139 123.5 296.5 123.5C274.861 123.5 255.29 120.65 241.147 116.056C234.072 113.758 228.383 111.032 224.473 108.029C220.557 105.021 218.5 101.796 218.5 98.5C218.5 95.2037 220.557 91.979 224.473 88.9708C228.383 85.9681 234.072 83.2424 241.147 80.9443C255.29 76.3499 274.861 73.5 296.5 73.5C318.139 73.5 337.71 76.3499 351.853 80.9443C358.928 83.2424 364.617 85.9681 368.527 88.9708C372.443 91.979 374.5 95.2037 374.5 98.5Z" stroke="black"/>
<path d="M374.5 429.5C374.5 432.796 372.443 436.021 368.527 439.029C364.617 442.032 358.928 444.758 351.853 447.056C337.71 451.65 318.139 454.5 296.5 454.5C274.861 454.5 255.29 451.65 241.147 447.056C234.072 444.758 228.383 442.032 224.473 439.029C220.557 436.021 218.5 432.796 218.5 429.5C218.5 426.204 220.557 422.979 224.473 419.971C228.383 416.968 234.072 414.242 241.147 411.944C255.29 407.35 274.861 404.5 296.5 404.5C318.139 404.5 337.71 407.35 351.853 411.944C358.928 414.242 364.617 416.968 368.527 419.971C372.443 422.979 374.5 426.204 374.5 429.5Z" stroke="black"/>
<rect x="219" y="218" width="155" height="59" fill="white" fill-opacity="0.85"/>
<path d="M374.5 276.5C374.5 279.796 372.443 283.021 368.527 286.029C364.617 289.032 358.928 291.758 351.853 294.056C337.71 298.65 318.139 301.5 296.5 301.5C274.861 301.5 255.29 298.65 241.147 294.056C234.072 291.758 228.383 289.032 224.473 286.029C220.557 283.021 218.5 279.796 218.5 276.5C218.5 273.204 220.557 269.979 224.473 266.971C228.383 263.968 234.072 261.242 241.147 258.944C255.29 254.35 274.861 251.5 296.5 251.5C318.139 251.5 337.71 254.35 351.853 258.944C358.928 261.242 364.617 263.968 368.527 266.971C372.443 269.979 374.5 273.204 374.5 276.5Z" fill="white" stroke="black"/>
<rect x="211" y="362" width="175" height="67" fill="white" fill-opacity="0.85"/>
<path d="M461 321H80L185.5 230.5H566L461 321Z" fill="#7EBAFF" fill-opacity="0.7" stroke="black" stroke-opacity="0.2" stroke-linecap="round"/>
<line x1="374.5" y1="430" x2="374.5" y2="98" stroke="black"/>
<line x1="218.5" y1="430" x2="218.5" y2="98" stroke="black"/>
<path d="M255.53 49.4697C255.237 49.1768 254.763 49.1768 254.47 49.4697L249.697 54.2426C249.404 54.5356 249.404 55.0104 249.697 55.3033C249.99 55.5962 250.464 55.5962 250.757 55.3033L255 51.0607L259.243 55.3033C259.536 55.5962 260.01 55.5962 260.303 55.3033C260.596 55.0104 260.596 54.5356 260.303 54.2426L255.53 49.4697ZM255.75 470L255.75 50H254.25L254.25 470H255.75Z" fill="#005723"/>
<path d="M339.53 49.4697C339.237 49.1768 338.763 49.1768 338.47 49.4697L333.697 54.2426C333.404 54.5356 333.404 55.0104 333.697 55.3033C333.99 55.5962 334.464 55.5962 334.757 55.3033L339 51.0607L343.243 55.3033C343.536 55.5962 344.01 55.5962 344.303 55.3033C344.596 55.0104 344.596 54.5356 344.303 54.2426L339.53 49.4697ZM339.75 470L339.75 50H338.25L338.25 470H339.75Z" fill="#005723"/>
<path d="M311.53 49.4697C311.237 49.1768 310.763 49.1768 310.47 49.4697L305.697 54.2426C305.404 54.5356 305.404 55.0104 305.697 55.3033C305.99 55.5962 306.464 55.5962 306.757 55.3033L311 51.0607L315.243 55.3033C315.536 55.5962 316.01 55.5962 316.303 55.3033C316.596 55.0104 316.596 54.5356 316.303 54.2426L311.53 49.4697ZM311.75 470L311.75 50H310.25L310.25 470H311.75Z" fill="#005723"/>
<path d="M283.53 49.4697C283.237 49.1768 282.763 49.1768 282.47 49.4697L277.697 54.2426C277.404 54.5356 277.404 55.0104 277.697 55.3033C277.99 55.5962 278.464 55.5962 278.757 55.3033L283 51.0607L287.243 55.3033C287.536 55.5962 288.01 55.5962 288.303 55.3033C288.596 55.0104 288.596 54.5356 288.303 54.2426L283.53 49.4697ZM283.75 470L283.75 50H282.25L282.25 470H283.75Z" fill="#005723"/>
<path d="M218.5 230.5H185.5L80.5 321H461L566.5 230.5H374.5V277.5C374.5 277.5 372.5 300 296.5 301.5C221 300 218.5 277.5 218.5 277.5V230.5Z" fill="#7EBAFF" stroke="black" stroke-linecap="round"/>
<path d="M348 425L355 429.5L349.5 436.5" stroke="#A04D00" stroke-linecap="round"/>
<path d="M218.5 414C218.5 414 221 436.5 296.5 438C372.5 436.5 374.5 414 374.5 414" stroke="#A04D00" stroke-linecap="round"/>
<path d="M348 405L355 409.5L349.5 416.5" stroke="#A04D00" stroke-linecap="round"/>
<path d="M218.5 394C218.5 394 221 416.5 296.5 418C372.5 416.5 374.5 394 374.5 394" stroke="#A04D00" stroke-linecap="round"/>
<path d="M348 385L355 389.5L349.5 396.5" stroke="#A04D00" stroke-linecap="round"/>
<path d="M218.5 374C218.5 374 221 396.5 296.5 398C372.5 396.5 374.5 374 374.5 374" stroke="#A04D00" stroke-linecap="round"/>
<path d="M348 365L355 369.5L349.5 376.5" stroke="#A04D00" stroke-linecap="round"/>
<path d="M218.5 354C218.5 354 221 376.5 296.5 378C372.5 376.5 374.5 354 374.5 354" stroke="#A04D00" stroke-linecap="round"/>
<path d="M348 345L355 349.5L349.5 356.5" stroke="#A04D00" stroke-linecap="round"/>
<path d="M218.5 334C218.5 334 221 356.5 296.5 358C372.5 356.5 374.5 334 374.5 334" stroke="#A04D00" stroke-linecap="round"/>
<path d="M348 325L355 329.5L349.5 336.5" stroke="#A04D00" stroke-linecap="round"/>
<path d="M218.5 314C218.5 314 221 336.5 296.5 338C372.5 336.5 374.5 314 374.5 314" stroke="#A04D00" stroke-linecap="round"/>
<path d="M348 305L355 309.5L349.5 316.5" stroke="#A04D00" stroke-linecap="round"/>
<path d="M218.5 294C218.5 294 221 316.5 296.5 318C372.5 316.5 374.5 294 374.5 294" stroke="#A04D00" stroke-linecap="round"/>
<path d="M348 285L355 289.5L349.5 296.5" stroke="#A04D00" stroke-linecap="round"/>
<path d="M218.5 274C218.5 274 221 296.5 296.5 298C372.5 296.5 374.5 274 374.5 274" stroke="#A04D00" stroke-linecap="round"/>
<path d="M348 265L355 269.5L349.5 276.5" stroke="#A04D00" stroke-linecap="round"/>
<path d="M218.5 254C218.5 254 221 276.5 296.5 278C372.5 276.5 374.5 254 374.5 254" stroke="#A04D00" stroke-linecap="round"/>
<path d="M348 245L355 249.5L349.5 256.5" stroke="#A04D00" stroke-linecap="round"/>
<path d="M218.5 234C218.5 234 221 256.5 296.5 258C372.5 256.5 374.5 234 374.5 234" stroke="#A04D00" stroke-linecap="round"/>
<path d="M348 225L355 229.5L349.5 236.5" stroke="#A04D00" stroke-linecap="round"/>
<path d="M218.5 214C218.5 214 221 236.5 296.5 238C372.5 236.5 374.5 214 374.5 214" stroke="#A04D00" stroke-linecap="round"/>
<path d="M348 205L355 209.5L349.5 216.5" stroke="#A04D00" stroke-linecap="round"/>
<path d="M218.5 194C218.5 194 221 216.5 296.5 218C372.5 216.5 374.5 194 374.5 194" stroke="#A04D00" stroke-linecap="round"/>
<path d="M348 185L355 189.5L349.5 196.5" stroke="#A04D00" stroke-linecap="round"/>
<path d="M218.5 174C218.5 174 221 196.5 296.5 198C372.5 196.5 374.5 174 374.5 174" stroke="#A04D00" stroke-linecap="round"/>
<path d="M348 165L355 169.5L349.5 176.5" stroke="#A04D00" stroke-linecap="round"/>
<path d="M218.5 154C218.5 154 221 176.5 296.5 178C372.5 176.5 374.5 154 374.5 154" stroke="#A04D00" stroke-linecap="round"/>
<path d="M348 145L355 149.5L349.5 156.5" stroke="#A04D00" stroke-linecap="round"/>
<path d="M218.5 134C218.5 134 221 156.5 296.5 158C372.5 156.5 374.5 134 374.5 134" stroke="#A04D00" stroke-linecap="round"/>
<path d="M348 125.5L355 130L349.5 137" stroke="#A04D00" stroke-linecap="round"/>
<path d="M218.5 114.5C218.5 114.5 221 137 296.5 138.5C372.5 137 374.5 114.5 374.5 114.5" stroke="#A04D00" stroke-linecap="round"/>
<path d="M398.47 470.53C398.763 470.823 399.237 470.823 399.53 470.53L404.303 465.757C404.596 465.464 404.596 464.99 404.303 464.697C404.01 464.404 403.536 464.404 403.243 464.697L399 468.939L394.757 464.697C394.464 464.404 393.99 464.404 393.697 464.697C393.404 464.99 393.404 465.464 393.697 465.757L398.47 470.53ZM399.75 470L399.75 50H398.25L398.25 470H399.75Z" fill="#005723"/>
<path d="M454.47 470.53C454.763 470.823 455.237 470.823 455.53 470.53L460.303 465.757C460.596 465.464 460.596 464.99 460.303 464.697C460.01 464.404 459.536 464.404 459.243 464.697L455 468.939L450.757 464.697C450.464 464.404 449.99 464.404 449.697 464.697C449.404 464.99 449.404 465.464 449.697 465.757L454.47 470.53ZM455.75 470L455.75 50H454.25L454.25 470H455.75Z" fill="#005723"/>
<path d="M426.47 470.53C426.763 470.823 427.237 470.823 427.53 470.53L432.303 465.757C432.596 465.464 432.596 464.99 432.303 464.697C432.01 464.404 431.536 464.404 431.243 464.697L427 468.939L422.757 464.697C422.464 464.404 421.99 464.404 421.697 464.697C421.404 464.99 421.404 465.464 421.697 465.757L426.47 470.53ZM427.75 470L427.75 50H426.25L426.25 470H427.75Z" fill="#005723"/>
<path d="M193.47 470.53C193.763 470.823 194.237 470.823 194.53 470.53L199.303 465.757C199.596 465.464 199.596 464.99 199.303 464.697C199.01 464.404 198.536 464.404 198.243 464.697L194 468.939L189.757 464.697C189.464 464.404 188.99 464.404 188.697 464.697C188.404 464.99 188.404 465.464 188.697 465.757L193.47 470.53ZM194.75 470L194.75 50H193.25L193.25 470H194.75Z" fill="#005723"/>
<path d="M165.47 470.53C165.763 470.823 166.237 470.823 166.53 470.53L171.303 465.757C171.596 465.464 171.596 464.99 171.303 464.697C171.01 464.404 170.536 464.404 170.243 464.697L166 468.939L161.757 464.697C161.464 464.404 160.99 464.404 160.697 464.697C160.404 464.99 160.404 465.464 160.697 465.757L165.47 470.53ZM166.75 470L166.75 50H165.25L165.25 470H166.75Z" fill="#005723"/>
<path d="M137.47 470.53C137.763 470.823 138.237 470.823 138.53 470.53L143.303 465.757C143.596 465.464 143.596 464.99 143.303 464.697C143.01 464.404 142.536 464.404 142.243 464.697L138 468.939L133.757 464.697C133.464 464.404 132.99 464.404 132.697 464.697C132.404 464.99 132.404 465.464 132.697 465.757L137.47 470.53ZM138.75 470L138.75 50H137.25L137.25 470H138.75Z" fill="#005723"/>
<path d="M80.5 321H461.5L511.5 277.5H374.5C374.5 277.5 372.5 300 296.5 301.5C221 300 218.5 277.5 218.5 277.5H130.97L80.5 321Z" fill="#7EBAFF"/>
<path d="M185.5 230.5L80 321H461L566.5 230.5" stroke="black"/>
<path d="M218.5 277.5C218.5 277.5 221 300 296.5 301.5C372.5 300 374.5 277.5 374.5 277.5" stroke="black" stroke-linecap="round"/>
<path d="M618.402 309.953C618.566 309.731 618.52 309.418 618.298 309.253L614.683 306.573C614.461 306.409 614.148 306.455 613.983 306.677C613.819 306.899 613.865 307.212 614.087 307.377L617.301 309.759L614.918 312.972C614.754 313.194 614.8 313.507 615.022 313.672C615.244 313.836 615.557 313.789 615.722 313.568L618.402 309.953ZM539.193 277.987C544.397 275.815 552.672 273.787 560.565 274.743C568.429 275.696 575.888 279.601 579.624 289.293L580.557 288.933C576.659 278.821 568.83 274.738 560.686 273.751C552.572 272.767 544.119 274.847 538.807 277.064L539.193 277.987ZM579.624 289.293C583.501 299.349 590.734 304.927 598.183 307.804C605.616 310.675 613.274 310.862 618.073 310.149L617.927 309.16C613.271 309.852 605.792 309.671 598.543 306.871C591.309 304.077 584.315 298.681 580.557 288.933L579.624 289.293Z" fill="black"/>
<rect x="641.5" y="209.5" width="324" height="201" fill="#7EBAFF" stroke="black"/>
<circle cx="804" cy="310" r="60" fill="#D9D9D9" stroke="#A04D00" stroke-width="3"/>
<path d="M856.5 313.5L864 307L870.5 313.5" stroke="#A04D00" stroke-width="3" stroke-linecap="round"/>
<path d="M752 310L744.5 316.5L738 310" stroke="#A04D00" stroke-width="3" stroke-linecap="round"/>
<circle cx="827" cy="267" r="3" fill="#005723"/>
<circle cx="781" cy="267" r="3" fill="#005723"/>
<circle cx="804" cy="267" r="3" fill="#005723"/>
<circle cx="804" cy="289" r="3" fill="#005723"/>
<circle cx="781" cy="289" r="3" fill="#005723"/>
<circle cx="827" cy="289" r="3" fill="#005723"/>
<circle cx="827" cy="331" r="3" fill="#005723"/>
<circle cx="781" cy="331" r="3" fill="#005723"/>
<circle cx="804" cy="331" r="3" fill="#005723"/>
<circle cx="804" cy="353" r="3" fill="#005723"/>
<circle cx="781" cy="353" r="3" fill="#005723"/>
<circle cx="827" cy="353" r="3" fill="#005723"/>
<circle cx="804" cy="311" r="3" fill="#005723"/>
<circle cx="781" cy="311" r="3" fill="#005723"/>
<circle cx="827" cy="311" r="3" fill="#005723"/>
<circle cx="850" cy="289" r="3" fill="#005723"/>
<circle cx="850" cy="331" r="3" fill="#005723"/>
<circle cx="850" cy="311" r="3" fill="#005723"/>
<circle cx="759" cy="289" r="3" fill="#005723"/>
<circle cx="759" cy="331" r="3" fill="#005723"/>
<circle cx="759" cy="311" r="3" fill="#005723"/>
<path d="M703.96 258.314L715.274 247" stroke="#005723" stroke-width="2" stroke-linecap="round"/>
<path d="M703.96 247.021L715.274 258.335" stroke="#005723" stroke-width="2" stroke-linecap="round"/>
<path d="M666.646 258.646L677.96 247.333" stroke="#005723" stroke-width="2" stroke-linecap="round"/>
<path d="M666.646 247.354L677.96 258.667" stroke="#005723" stroke-width="2" stroke-linecap="round"/>
<path d="M666 296.314L677.314 285" stroke="#005723" stroke-width="2" stroke-linecap="round"/>
<path d="M666 285.021L677.314 296.335" stroke="#005723" stroke-width="2" stroke-linecap="round"/>
<path d="M703.314 295.981L714.627 284.667" stroke="#005723" stroke-width="2" stroke-linecap="round"/>
<path d="M703.314 284.688L714.627 296.002" stroke="#005723" stroke-width="2" stroke-linecap="round"/>
<path d="M703.96 334.314L715.274 323" stroke="#005723" stroke-width="2" stroke-linecap="round"/>
<path d="M703.96 323.021L715.274 334.335" stroke="#005723" stroke-width="2" stroke-linecap="round"/>
<path d="M666.646 334.646L677.96 323.333" stroke="#005723" stroke-width="2" stroke-linecap="round"/>
<path d="M666.646 323.354L677.96 334.667" stroke="#005723" stroke-width="2" stroke-linecap="round"/>
<path d="M666 372.314L677.314 361" stroke="#005723" stroke-width="2" stroke-linecap="round"/>
<path d="M666 361.021L677.314 372.335" stroke="#005723" stroke-width="2" stroke-linecap="round"/>
<path d="M703.314 371.981L714.627 360.667" stroke="#005723" stroke-width="2" stroke-linecap="round"/>
<path d="M703.314 360.688L714.627 372.002" stroke="#005723" stroke-width="2" stroke-linecap="round"/>
<path d="M931.96 258.314L943.274 247" stroke="#005723" stroke-width="2" stroke-linecap="round"/>
<path d="M931.96 247.021L943.274 258.335" stroke="#005723" stroke-width="2" stroke-linecap="round"/>
<path d="M894.646 258.646L905.96 247.333" stroke="#005723" stroke-width="2" stroke-linecap="round"/>
<path d="M894.646 247.354L905.96 258.667" stroke="#005723" stroke-width="2" stroke-linecap="round"/>
<path d="M894 296.314L905.314 285" stroke="#005723" stroke-width="2" stroke-linecap="round"/>
<path d="M894 285.021L905.314 296.335" stroke="#005723" stroke-width="2" stroke-linecap="round"/>
<path d="M931.314 295.981L942.627 284.667" stroke="#005723" stroke-width="2" stroke-linecap="round"/>
<path d="M931.314 284.688L942.627 296.002" stroke="#005723" stroke-width="2" stroke-linecap="round"/>
<path d="M931.96 334.314L943.274 323" stroke="#005723" stroke-width="2" stroke-linecap="round"/>
<path d="M931.96 323.021L943.274 334.335" stroke="#005723" stroke-width="2" stroke-linecap="round"/>
<path d="M894.646 334.646L905.96 323.333" stroke="#005723" stroke-width="2" stroke-linecap="round"/>
<path d="M894.646 323.354L905.96 334.667" stroke="#005723" stroke-width="2" stroke-linecap="round"/>
<path d="M894 372.314L905.314 361" stroke="#005723" stroke-width="2" stroke-linecap="round"/>
<path d="M894 361.021L905.314 372.335" stroke="#005723" stroke-width="2" stroke-linecap="round"/>
<path d="M931.314 371.981L942.627 360.667" stroke="#005723" stroke-width="2" stroke-linecap="round"/>
<path d="M931.314 360.688L942.627 372.002" stroke="#005723" stroke-width="2" stroke-linecap="round"/>
<path d="M738 257.314L749.314 246" stroke="#005723" stroke-width="2" stroke-linecap="round"/>
<path d="M738 246.021L749.314 257.335" stroke="#005723" stroke-width="2" stroke-linecap="round"/>
<path d="M858 258.314L869.314 247" stroke="#005723" stroke-width="2" stroke-linecap="round"/>
<path d="M858 247.021L869.314 258.335" stroke="#005723" stroke-width="2" stroke-linecap="round"/>
<path d="M738 372.314L749.314 361" stroke="#005723" stroke-width="2" stroke-linecap="round"/>
<path d="M738 361.021L749.314 372.335" stroke="#005723" stroke-width="2" stroke-linecap="round"/>
<path d="M858 373.314L869.314 362" stroke="#005723" stroke-width="2" stroke-linecap="round"/>
<path d="M858 362.021L869.314 373.335" stroke="#005723" stroke-width="2" stroke-linecap="round"/>
<path d="M463.188 45.96L463.272 45.876H468.256C471.635 45.876 473.389 45.8853 473.52 45.904C474.453 45.9973 475.247 46.268 475.9 46.716C476.311 46.9773 476.647 47.304 476.908 47.696C477.188 48.1627 477.375 48.6107 477.468 49.04C477.543 49.4693 477.543 49.936 477.468 50.44C477.169 52.008 476.161 53.2587 474.444 54.192C474.351 54.248 474.257 54.2947 474.164 54.332C473.809 54.5187 473.324 54.7147 472.708 54.92C472.521 54.9387 472.428 54.9667 472.428 55.004C472.671 55.004 473.007 55.0973 473.436 55.284C474.836 55.8253 475.667 56.7587 475.928 58.084C475.965 58.308 475.984 58.5413 475.984 58.784C475.984 60.1093 475.396 61.388 474.22 62.62C474.183 62.6573 474.145 62.6947 474.108 62.732C473.081 63.7587 471.859 64.4493 470.44 64.804C469.992 64.916 469.18 64.972 468.004 64.972C468.079 64.972 466.772 64.9813 464.084 65C460.463 65 458.615 64.972 458.54 64.916C458.521 64.916 458.503 64.8787 458.484 64.804C458.447 64.748 458.475 64.5333 458.568 64.16C458.661 63.768 458.736 63.5533 458.792 63.516L458.876 63.432H459.772C460.631 63.4133 461.116 63.376 461.228 63.32C461.321 63.264 461.396 63.152 461.452 62.984C461.583 62.6107 462.227 60.0907 463.384 55.424C464.672 50.272 465.316 47.6773 465.316 47.64C465.316 47.584 465.297 47.556 465.26 47.556C465.148 47.5187 464.709 47.4813 463.944 47.444C463.291 47.444 462.927 47.3787 462.852 47.248C462.833 47.192 462.861 46.9773 462.936 46.604C463.029 46.2493 463.113 46.0347 463.188 45.96ZM472.876 47.472C472.783 47.4533 472.055 47.444 470.692 47.444C469.311 47.444 468.536 47.4627 468.368 47.5C468.275 47.5373 468.219 47.5747 468.2 47.612L467.304 51.028L466.464 54.388H468.424C469.749 54.388 470.496 54.3693 470.664 54.332C471.821 54.0893 472.764 53.4173 473.492 52.316C474.295 51.1213 474.537 49.964 474.22 48.844C474.015 48.0787 473.567 47.6213 472.876 47.472ZM471.112 55.732C471 55.7133 470.132 55.704 468.508 55.704H466.128L465.204 59.484C464.569 61.9853 464.252 63.2733 464.252 63.348C464.252 63.3853 464.327 63.404 464.476 63.404C464.532 63.4227 465.316 63.432 466.828 63.432L468.984 63.404L469.236 63.348C470.58 62.956 471.579 62.0973 472.232 60.772C472.512 60.1933 472.689 59.5773 472.764 58.924C472.895 57.5987 472.587 56.6467 471.84 56.068C471.616 55.9 471.373 55.788 471.112 55.732Z" fill="#005723"/>
<path d="M386.784 113.688C387.456 113.52 387.941 113.688 388.24 114.192C388.333 114.36 388.389 114.547 388.408 114.752C388.408 115.032 388.343 115.303 388.212 115.564C387.783 116.161 387.241 116.507 386.588 116.6C386.383 116.6 386.168 116.544 385.944 116.432C385.757 116.339 385.608 116.171 385.496 115.928C385.44 115.853 385.403 115.704 385.384 115.48C385.384 115.181 385.44 114.92 385.552 114.696C385.813 114.173 386.224 113.837 386.784 113.688ZM384.376 119.68C384.507 119.643 384.712 119.624 384.992 119.624C385.421 119.643 385.795 119.736 386.112 119.904C386.355 120.035 386.541 120.175 386.672 120.324C386.821 120.455 386.961 120.641 387.092 120.884C387.26 121.239 387.335 121.612 387.316 122.004C387.316 122.321 387.297 122.545 387.26 122.676C387.241 122.713 386.821 123.88 386 126.176C385.216 128.267 384.796 129.424 384.74 129.648C384.553 130.264 384.525 130.675 384.656 130.88C384.749 130.992 384.945 131.011 385.244 130.936C385.972 130.768 386.56 129.863 387.008 128.22C387.101 127.921 387.195 127.763 387.288 127.744C387.344 127.725 387.54 127.716 387.876 127.716C388.287 127.716 388.511 127.735 388.548 127.772C388.66 127.847 388.66 128.043 388.548 128.36C388.343 129.088 388.035 129.769 387.624 130.404C386.877 131.524 386.028 132.149 385.076 132.28C384.74 132.355 384.395 132.336 384.04 132.224C383.667 132.112 383.359 131.972 383.116 131.804C382.705 131.468 382.435 130.992 382.304 130.376C382.229 130.021 382.248 129.648 382.36 129.256C382.397 129.107 382.808 127.959 383.592 125.812C384.264 124.02 384.693 122.844 384.88 122.284C385.067 121.705 385.095 121.304 384.964 121.08C384.908 120.931 384.712 120.903 384.376 120.996C383.816 121.127 383.321 121.715 382.892 122.76C382.649 123.6 382.528 124.001 382.528 123.964C382.472 124.076 382.435 124.141 382.416 124.16C382.379 124.197 382.155 124.216 381.744 124.216H381.128L381.044 124.132C380.988 124.076 380.96 124.001 380.96 123.908C380.997 123.609 381.156 123.143 381.436 122.508C381.66 122.023 381.893 121.621 382.136 121.304C382.379 120.968 382.687 120.632 383.06 120.296C383.471 119.979 383.909 119.773 384.376 119.68Z" fill="#A04D00"/>
</svg>
