<svg width="441" height="422" viewBox="0 0 441 422" fill="none" xmlns="http://www.w3.org/2000/svg">
<path d="M280.272 258.864C281.533 258.776 282.135 258.732 282.076 258.732H282.164V265.31C282.164 269.725 282.171 271.954 282.186 271.998C282.245 272.365 282.428 272.592 282.736 272.68C282.897 272.724 283.147 272.753 283.484 272.768H283.88V273.384V274L280.272 274.242H280.096V273.692V273.142L279.942 273.274C278.959 273.963 277.911 274.286 276.796 274.242C276.312 274.227 275.843 274.11 275.388 273.89C274.919 273.655 274.508 273.362 274.156 273.01C273.159 271.969 272.682 270.656 272.726 269.072C272.77 268.265 272.946 267.532 273.254 266.872C273.518 266.359 273.819 265.926 274.156 265.574C274.523 265.207 274.933 264.914 275.388 264.694C275.711 264.533 276.041 264.415 276.378 264.342C276.539 264.313 276.796 264.298 277.148 264.298C277.632 264.298 278.079 264.349 278.49 264.452C279.018 264.584 279.502 264.789 279.942 265.068C280.074 265.141 280.147 265.185 280.162 265.2L280.14 260.954C280.081 260.602 279.898 260.382 279.59 260.294C279.429 260.25 279.179 260.221 278.842 260.206H278.446V259.59V258.974H278.49L280.272 258.864ZM278.314 265.354C277.845 265.281 277.397 265.303 276.972 265.42C276.195 265.64 275.667 266.109 275.388 266.828C275.197 267.327 275.102 268.141 275.102 269.27C275.102 270.458 275.205 271.309 275.41 271.822C275.659 272.482 276.165 272.922 276.928 273.142C277.045 273.171 277.236 273.186 277.5 273.186C277.779 273.186 277.962 273.179 278.05 273.164C278.857 272.988 279.509 272.548 280.008 271.844L280.096 271.712V269.094V266.476L279.964 266.322C279.524 265.809 278.974 265.486 278.314 265.354ZM286.469 264.408C287.701 264.32 288.287 264.276 288.229 264.276H288.317V265.024V265.772L288.559 265.508C289.16 264.892 289.871 264.511 290.693 264.364C291.382 264.217 292.057 264.239 292.717 264.43C293.069 264.503 293.384 264.657 293.663 264.892C294.147 265.288 294.433 265.911 294.521 266.762C294.535 266.865 294.543 267.877 294.543 269.798C294.543 271.661 294.55 272.599 294.565 272.614C294.623 272.717 295.034 272.768 295.797 272.768H296.259V273.384V274H296.083L294.697 273.956C293.89 273.941 293.098 273.941 292.321 273.956L290.979 274H290.781V273.384V272.768H291.243C292.02 272.768 292.431 272.709 292.475 272.592V269.622C292.46 267.598 292.416 266.476 292.343 266.256C292.211 265.772 291.903 265.471 291.419 265.354C291.111 265.295 290.781 265.303 290.429 265.376C289.827 265.508 289.343 265.86 288.977 266.432C288.757 266.74 288.603 267.107 288.515 267.532C288.485 267.664 288.463 268.529 288.449 270.128V272.592C288.493 272.709 288.911 272.768 289.703 272.768H290.165V273.384V274H289.989L288.603 273.956C287.811 273.941 287.019 273.941 286.227 273.956L284.841 274H284.665V273.384V272.768H285.127C285.889 272.768 286.3 272.717 286.359 272.614V266.498C286.3 266.146 286.117 265.926 285.809 265.838C285.647 265.794 285.398 265.765 285.061 265.75H284.665V265.134V264.518H284.709L286.469 264.408Z" fill="black"/>
<path d="M284.457 259.507H294.457" stroke="black"/>
<path d="M294.104 259.744L294.457 260.098L295.164 259.391L294.811 259.037L294.104 259.744ZM291.674 255.9C291.478 255.705 291.162 255.705 290.966 255.9C290.771 256.095 290.771 256.412 290.966 256.607L291.674 255.9ZM294.811 259.037L291.674 255.9L290.966 256.607L294.104 259.744L294.811 259.037Z" fill="black"/>
<path d="M290.966 262.174C290.771 262.369 290.771 262.686 290.966 262.881C291.162 263.076 291.478 263.076 291.674 262.881L290.966 262.174ZM294.104 259.037L290.966 262.174L291.674 262.881L294.811 259.744L294.104 259.037Z" fill="black"/>
<path d="M260.28 140.66C260.747 140.553 261.153 140.667 261.5 141C261.753 141.28 261.88 141.587 261.88 141.92C261.88 142.133 261.833 142.333 261.74 142.52C261.5 142.973 261.107 143.213 260.56 143.24C260.053 143.24 259.673 143.013 259.42 142.56C259.313 142.36 259.26 142.147 259.26 141.92C259.26 141.72 259.307 141.527 259.4 141.34C259.573 140.967 259.867 140.74 260.28 140.66ZM260.14 145.28C261.26 145.2 261.793 145.16 261.74 145.16H261.8V148.94C261.8 151.46 261.813 152.733 261.84 152.76C261.88 152.8 261.913 152.82 261.94 152.82C262.02 152.86 262.313 152.88 262.82 152.88H263.2V153.44V154H263.04L261.9 153.96C261.233 153.947 260.547 153.947 259.84 153.96C259.027 153.987 258.613 154 258.6 154H258.42V153.44V152.88H258.84C259.533 152.88 259.907 152.833 259.96 152.74C259.973 152.727 259.98 151.807 259.98 149.98C259.98 148.06 259.953 147.033 259.9 146.9C259.86 146.78 259.78 146.693 259.66 146.64C259.473 146.547 259.16 146.5 258.72 146.5H258.5V145.94V145.38H258.54L260.14 145.28Z" fill="#0036C0"/>
<path d="M257 137.745H265" stroke="#0036C0"/>
<path d="M264.646 137.863L265 138.217L265.707 137.51L265.354 137.156L264.646 137.863ZM262.844 134.646C262.649 134.451 262.332 134.451 262.137 134.646C261.941 134.842 261.941 135.158 262.137 135.354L262.844 134.646ZM265.354 137.156L262.844 134.646L262.137 135.354L264.646 137.863L265.354 137.156Z" fill="#0036C0"/>
<path d="M262.137 139.666C261.941 139.861 261.941 140.178 262.137 140.373C262.332 140.568 262.649 140.568 262.844 140.373L262.137 139.666ZM264.646 137.156L262.137 139.666L262.844 140.373L265.354 137.863L264.646 137.156Z" fill="#0036C0"/>
<path d="M251.111 139.393C250.92 139.194 250.604 139.187 250.404 139.378L247.154 142.49C246.954 142.681 246.948 142.998 247.139 143.197C247.33 143.396 247.646 143.403 247.846 143.212L250.735 140.446L253.501 143.335C253.692 143.535 254.009 143.542 254.208 143.351C254.407 143.16 254.414 142.843 254.223 142.644L251.111 139.393ZM248.25 277.75L251.25 139.75L250.25 139.728L247.25 277.728L248.25 277.75Z" fill="#0036C0"/>
<path d="M200.405 140.706C200.243 140.483 199.93 140.433 199.706 140.595L196.064 143.237C195.84 143.399 195.79 143.712 195.952 143.935C196.114 144.159 196.427 144.209 196.651 144.047L199.889 141.698L202.237 144.936C202.399 145.16 202.712 145.21 202.935 145.048C203.159 144.886 203.209 144.573 203.047 144.349L200.405 140.706ZM188 285.491C187.001 232.534 191.495 197.568 200.494 141.079L199.506 140.921C190.505 197.432 185.999 232.466 187 285.509L188 285.491Z" fill="#0036C0"/>
<path d="M146.426 145.738C146.281 145.503 145.973 145.429 145.738 145.574L141.906 147.934C141.671 148.079 141.598 148.387 141.743 148.622C141.888 148.857 142.196 148.931 142.431 148.786L145.837 146.688L147.934 150.094C148.079 150.329 148.387 150.402 148.622 150.257C148.857 150.112 148.931 149.804 148.786 149.569L146.426 145.738ZM131.5 288.986C130.001 235.032 134.496 196.576 146.486 146.116L145.514 145.884C133.504 196.424 128.999 234.968 130.5 289.014L131.5 288.986Z" fill="#0036C0"/>
<path d="M289.287 119.591C289.061 119.432 288.749 119.487 288.591 119.713L286.005 123.396C285.847 123.622 285.901 123.934 286.127 124.092C286.353 124.251 286.665 124.196 286.824 123.97L289.122 120.696L292.396 122.995C292.622 123.153 292.934 123.099 293.092 122.873C293.251 122.647 293.196 122.335 292.97 122.176L289.287 119.591ZM322.42 263.729C308.401 241.957 302.686 220.419 299.219 197.113C297.485 185.455 296.315 173.365 294.947 160.575C293.579 147.79 292.015 134.316 289.493 119.914L288.507 120.086C291.024 134.454 292.585 147.902 293.952 160.682C295.319 173.457 296.492 185.576 298.23 197.261C301.708 220.643 307.455 242.334 321.58 264.271L322.42 263.729Z" fill="#0036C0"/>
<path d="M85.25 357.75C76.5834 311.917 85.95 221.15 192.75 224.75C326.25 229.25 334.25 113.75 334.25 49.25" stroke="black"/>
<path d="M80.25 305.417L85.875 300.75L89.25 306.75" stroke="black" stroke-linecap="round"/>
<path d="M140.456 227.042L147.077 230.137L143.091 235.75" stroke="black" stroke-linecap="round"/>
<path d="M323.452 115.07L329.718 111.308L332.146 117.75" stroke="black" stroke-linecap="round"/>
<path d="M238.624 219.545C238.096 219.706 237.798 220.265 237.959 220.793C238.12 221.322 238.678 221.62 239.207 221.459L238.624 219.545ZM260.885 214.555C261.144 214.068 260.96 213.462 260.473 213.202L252.532 208.967C252.044 208.707 251.439 208.891 251.179 209.379C250.919 209.866 251.103 210.472 251.59 210.732L258.649 214.496L254.885 221.555C254.625 222.042 254.809 222.648 255.296 222.908C255.784 223.168 256.389 222.984 256.649 222.496L260.885 214.555ZM239.207 221.459L260.293 215.041L259.711 213.128L238.624 219.545L239.207 221.459Z" fill="black"/>
<path d="M249.478 217.854C249.397 217.59 249.118 217.441 248.854 217.522C248.59 217.603 248.441 217.882 248.522 218.146L249.478 217.854ZM266.308 275.82C266.551 275.949 266.854 275.857 266.984 275.613L269.096 271.64C269.226 271.396 269.133 271.093 268.89 270.964C268.646 270.834 268.343 270.926 268.213 271.17L266.336 274.702L262.804 272.824C262.56 272.695 262.257 272.787 262.128 273.031C261.998 273.275 262.09 273.577 262.334 273.707L266.308 275.82ZM248.522 218.146L266.064 275.524L267.02 275.232L249.478 217.854L248.522 218.146Z" fill="black"/>
<circle cx="85.25" cy="357.75" r="4" transform="rotate(-90 85.25 357.75)" fill="black"/>
<circle cx="334.25" cy="48.75" r="4" transform="rotate(-90 334.25 48.75)" fill="black"/>
<path d="M342.112 51.408C343.344 51.32 343.931 51.276 343.872 51.276H343.938V51.804V52.332L344.026 52.222C344.173 52.002 344.356 51.8187 344.576 51.672C344.737 51.5547 344.979 51.4447 345.302 51.342C345.581 51.2687 345.881 51.254 346.204 51.298C346.996 51.386 347.539 51.7013 347.832 52.244C348.111 52.772 348.081 53.256 347.744 53.696C347.656 53.8133 347.539 53.9087 347.392 53.982C347.216 54.07 347.018 54.114 346.798 54.114C346.563 54.114 346.358 54.07 346.182 53.982C345.742 53.762 345.537 53.388 345.566 52.86C345.566 52.728 345.588 52.6033 345.632 52.486C345.676 52.3833 345.698 52.3247 345.698 52.31L345.544 52.354C344.693 52.53 344.202 53.4833 344.07 55.214V59.614C344.114 59.702 344.539 59.7533 345.346 59.768H346.182V60.384V61H345.984C345.999 61 345.478 60.9853 344.422 60.956C343.513 60.9413 342.669 60.9413 341.892 60.956C340.997 60.9853 340.543 61 340.528 61H340.33V60.384V59.768H340.792C341.555 59.768 341.965 59.7167 342.024 59.614V53.498C341.965 53.146 341.782 52.926 341.474 52.838C341.313 52.794 341.063 52.7647 340.726 52.75H340.33V52.134C340.33 51.7233 340.345 51.518 340.374 51.518L342.112 51.408Z" fill="black"/>
<path d="M350.14 55.35C350.327 55.33 350.52 55.3367 350.72 55.37C351.18 55.43 351.563 55.61 351.87 55.91C352.043 56.07 352.183 56.26 352.29 56.48C352.403 56.7333 352.47 57.0133 352.49 57.32C352.497 57.7067 352.39 58.0733 352.17 58.42C351.97 58.7133 351.617 59.07 351.11 59.49C350.87 59.6967 350.533 60.0067 350.1 60.42L349.52 60.97L350.2 60.98C351.173 60.98 351.693 60.9633 351.76 60.93C351.8 60.91 351.843 60.7933 351.89 60.58L351.99 60.02C351.99 60.0133 352.073 60.01 352.24 60.01H352.49V60.04C352.483 60.0533 352.437 60.3733 352.35 61C352.263 61.6267 352.217 61.95 352.21 61.97V62H350.35H348.5V61.76C348.5 61.5933 348.507 61.5 348.52 61.48L349.37 60.52C350.097 59.7067 350.54 59.1967 350.7 58.99C350.953 58.6367 351.13 58.3167 351.23 58.03C351.403 57.4967 351.37 57.0067 351.13 56.56C351.07 56.4533 351 56.3567 350.92 56.27C350.7 56.0433 350.427 55.92 350.1 55.9C349.833 55.8867 349.603 55.9767 349.41 56.17L349.23 56.4C349.23 56.4133 349.257 56.42 349.31 56.42C349.437 56.46 349.537 56.5167 349.61 56.59C349.657 56.6233 349.697 56.6733 349.73 56.74C349.777 56.8533 349.8 56.97 349.8 57.09C349.78 57.41 349.617 57.6067 349.31 57.68C349.283 57.6867 349.257 57.6933 349.23 57.7C349.177 57.7067 349.123 57.7067 349.07 57.7C348.79 57.66 348.61 57.5167 348.53 57.27C348.517 57.2167 348.51 57.1333 348.51 57.02C348.51 56.8933 348.517 56.8033 348.53 56.75C348.59 56.4833 348.703 56.24 348.87 56.02C348.957 55.9133 349.073 55.8067 349.22 55.7C349.367 55.5933 349.537 55.5067 349.73 55.44C349.85 55.4067 349.987 55.3767 350.14 55.35Z" fill="black"/>
<path d="M339.457 46.5067H349.457" stroke="black"/>
<path d="M349.104 46.7441L349.457 47.0976L350.164 46.3905L349.811 46.0369L349.104 46.7441ZM346.674 42.8998C346.478 42.7045 346.162 42.7045 345.966 42.8998C345.771 43.0951 345.771 43.4116 345.966 43.6069L346.674 42.8998ZM349.811 46.0369L346.674 42.8998L345.966 43.6069L349.104 46.7441L349.811 46.0369Z" fill="black"/>
<path d="M345.966 49.1741C345.771 49.3694 345.771 49.6859 345.966 49.8812C346.162 50.0765 346.478 50.0765 346.674 49.8812L345.966 49.1741ZM349.104 46.0369L345.966 49.1741L346.674 49.8812L349.811 46.7441L349.104 46.0369Z" fill="black"/>
<path d="M96.6548 351.408C97.8868 351.32 98.4735 351.276 98.4148 351.276H98.4808V351.804V352.332L98.5688 352.222C98.7155 352.002 98.8988 351.819 99.1188 351.672C99.2802 351.555 99.5222 351.445 99.8448 351.342C100.124 351.269 100.424 351.254 100.747 351.298C101.539 351.386 102.082 351.701 102.375 352.244C102.654 352.772 102.624 353.256 102.287 353.696C102.199 353.813 102.082 353.909 101.935 353.982C101.759 354.07 101.561 354.114 101.341 354.114C101.106 354.114 100.901 354.07 100.725 353.982C100.285 353.762 100.08 353.388 100.109 352.86C100.109 352.728 100.131 352.603 100.175 352.486C100.219 352.383 100.241 352.325 100.241 352.31L100.087 352.354C99.2362 352.53 98.7448 353.483 98.6128 355.214V359.614C98.6568 359.702 99.0822 359.753 99.8888 359.768H100.725V360.384V361H100.527C100.542 361 100.021 360.985 98.9648 360.956C98.0555 360.941 97.2122 360.941 96.4348 360.956C95.5402 360.985 95.0855 361 95.0708 361H94.8728V360.384V359.768H95.3348C96.0975 359.768 96.5082 359.717 96.5668 359.614V353.498C96.5082 353.146 96.3248 352.926 96.0168 352.838C95.8555 352.794 95.6062 352.765 95.2688 352.75H94.8728V352.134C94.8728 351.723 94.8875 351.518 94.9168 351.518L96.6548 351.408Z" fill="black"/>
<path d="M105.283 355.38L105.313 355.34H105.433C105.506 355.34 105.553 355.35 105.573 355.37L105.613 355.4V358.38V361.36L105.643 361.38C105.65 361.387 105.673 361.397 105.713 361.41C105.793 361.43 106.06 361.44 106.513 361.44H106.843V361.72V362H106.723L105.863 361.98C105.363 361.973 104.863 361.973 104.363 361.98C103.776 361.993 103.486 362 103.493 362H103.373V361.72V361.44H103.703C104.17 361.44 104.443 361.43 104.523 361.41C104.563 361.397 104.586 361.387 104.593 361.38L104.623 361.36V358.85C104.623 357.177 104.62 356.34 104.613 356.34C104.266 356.473 103.88 356.54 103.453 356.54H103.323V356.26V355.98H103.453C104.04 355.98 104.54 355.86 104.953 355.62C105.12 355.513 105.23 355.433 105.283 355.38Z" fill="black"/>
<path d="M94 346.507H104" stroke="black"/>
<path d="M103.646 346.744L104 347.098L104.707 346.391L104.354 346.037L103.646 346.744ZM101.216 342.9C101.021 342.705 100.705 342.705 100.509 342.9C100.314 343.095 100.314 343.412 100.509 343.607L101.216 342.9ZM104.354 346.037L101.216 342.9L100.509 343.607L103.646 346.744L104.354 346.037Z" fill="black"/>
<path d="M100.509 349.174C100.314 349.369 100.314 349.686 100.509 349.881C100.705 350.076 101.021 350.076 101.216 349.881L100.509 349.174ZM103.646 346.037L100.509 349.174L101.216 349.881L104.354 346.744L103.646 346.037Z" fill="black"/>
</svg>
